<?xml version="1.0" encoding="UTF-8"?>
<svg viewBox="0 0 21 13" version="1.1" xmlns="http://www.w3.org/2000/svg" xmlns:xlink="http://www.w3.org/1999/xlink">
    <!-- Generator: Sketch 55 (78076) - https://sketchapp.com -->
    <title>Combined-Shape Copy</title>
    <desc>Created with Sketch.</desc>
    <g id="Page-1" stroke="none" stroke-width="1" fill="none" fill-rule="evenodd">
        <g id="Aisle-Landing-Copy-16" transform="translate(-198.000000, -851.000000)" fill="#9B9B9B" fill-rule="nonzero">
            <g id="Other/Product-Tile-Copy-85" transform="translate(21.000000, 427.000000)">
                <path d="M191.94066,429.336888 L191.94066,426.893199 C191.94066,426.340915 192.388375,425.893199 192.94066,425.893199 C193.492945,425.893199 193.94066,426.340915 193.94066,426.893199 L193.94066,429.336888 L196.252262,429.336888 C196.804547,429.336888 197.252262,429.784604 197.252262,430.336888 C197.252262,430.889173 196.804547,431.336888 196.252262,431.336888 L193.94066,431.336888 L193.94066,433.878795 C193.94066,434.43108 193.492945,434.878795 192.94066,434.878795 C192.388375,434.878795 191.94066,434.43108 191.94066,433.878795 L191.94066,431.336888 L189.266667,431.336888 C188.714382,431.336888 188.266667,430.889173 188.266667,430.336888 C188.266667,429.784604 188.714382,429.336888 189.266667,429.336888 L191.94066,429.336888 Z M178,426 C177.447715,426 177,425.552285 177,425 C177,424.447715 177.447715,424 178,424 L189.115358,424 C189.667643,424 190.115358,424.447715 190.115358,425 C190.115358,425.552285 189.667643,426 189.115358,426 L178,426 Z M178,431.336888 C177.447715,431.336888 177,430.889173 177,430.336888 C177,429.784604 177.447715,429.336888 178,429.336888 L184.72007,429.336888 C185.272354,429.336888 185.72007,429.784604 185.72007,430.336888 C185.72007,430.889173 185.272354,431.336888 184.72007,431.336888 L178,431.336888 Z M178,437 C177.447715,437 177,436.552285 177,436 C177,435.447715 177.447715,435 178,435 L189.115358,435 C189.667643,435 190.115358,435.447715 190.115358,436 C190.115358,436.552285 189.667643,437 189.115358,437 L178,437 Z" id="Combined-Shape-Copy"></path>
            </g>
        </g>
    </g>
</svg>