<?xml version="1.0" encoding="UTF-8"?>
<svg width="19px" height="34px" viewBox="0 0 19 34" version="1.1" xmlns="http://www.w3.org/2000/svg" xmlns:xlink="http://www.w3.org/1999/xlink">
    <!-- Generator: Sketch 55 (78076) - https://sketchapp.com -->
    <title>Group</title>
    <desc>Created with Sketch.</desc>
    <g id="Page-1" stroke="none" stroke-width="1" fill="none" fill-rule="evenodd">
        <g id="Aisle-Landing-Copy-16" transform="translate(0.000000, -225.000000)">
            <g id="Group" transform="translate(-15.000000, 225.000000)">
                <circle id="Oval-5-Copy-2" fill="#00884F" cx="17" cy="17" r="17"></circle>
                <path d="M11.5234843,20.5403082 C10.2048573,21.8543923 9.78844887,23.4969976 9.71904746,25.2053071 C9.71904746,25.6652365 9.51084322,25.9280534 9.02503323,25.9937576 C8.2616177,26.0594618 7.84520923,25.5995323 8.05341347,24.9424902 C8.53922335,22.9056598 9.64964605,21.0659419 11.1070758,19.4890409 C13.1891183,17.0579851 15.826372,15.2182672 18.6718301,13.7070705 C19.0188372,13.5099579 19.4352457,13.3128451 19.7822527,13.0500283 C16.0345763,14.1669999 12.7727097,16.0724219 10.1354559,18.9634071 C8.67802617,18.2406609 7.98401205,16.1381261 8.74742758,14.5612252 C9.78844887,12.5243947 11.5234843,11.2760147 13.6055267,10.3561557 C17.9778159,8.45073374 22.4195066,8.64784636 26.8611972,10.3561557 C26.9305986,10.3561557 26.9305986,10.4218599 27,10.4875641 C25.6119717,11.67024 24.9873589,13.3128451 24.2239434,14.824042 C22.9747179,17.2550978 21.7254924,19.6204493 19.5046471,21.4601671 C18.3942244,22.3800261 17.2144004,23.1684766 15.7569706,23.4969976 C13.9525338,23.8912229 12.2868998,22.971364 11.7316885,21.2630545 C11.6622871,21.0002377 11.5928857,20.803125 11.5234843,20.5403082 Z" id="Path" fill="#FFFFFF" fill-rule="nonzero"></path>
            </g>
        </g>
    </g>
</svg>