<?xml version="1.0" encoding="UTF-8"?>
<svg width="24px" height="21px" viewBox="0 0 24 21" version="1.1" xmlns="http://www.w3.org/2000/svg" xmlns:xlink="http://www.w3.org/1999/xlink">
    <!-- Generator: Sketch 55 (78076) - https://sketchapp.com -->
    <title>Icons/Store</title>
    <desc>Created with Sketch.</desc>
    <g id="Page-1" stroke="none" stroke-width="1" fill="none" fill-rule="evenodd" stroke-linecap="round" stroke-linejoin="round">
        <g id="Artboard" transform="translate(-68.000000, -30.000000)" stroke="#E0004D" stroke-width="2">
            <g id="Group-6">
                <g id="Group-18">
                    <g id="Icons/Store-SS" transform="translate(65.000000, 25.000000)">
                        <path d="M11.5475,24.14705 L18.251,24.14705 L18.251,17.44355 L11.5475,17.44355 L11.5475,24.14705 Z M19.80565,11.6986 C19.25265,12.4546 18.36115,12.9481 17.35265,12.9481 C16.34415,12.9481 15.45265,12.4546 14.89965,11.6986 C14.34665,12.4546 13.45515,12.9481 12.44665,12.9481 C11.43765,12.9481 10.54665,12.4546 9.99315,11.6986 C9.44065,12.4546 8.54915,12.9481 7.54065,12.9481 C7.04515,12.9481 6.57915,12.8271 6.16665,12.6171 L6.16665,24.1471 L23.63265,24.1471 L23.63265,12.6171 C23.21965,12.8271 22.75365,12.9481 22.25865,12.9481 C21.25015,12.9481 20.35865,12.4546 19.80565,11.6986 Z M6.1665,7.25745 L4.5,9.90745 C4.5,11.09145 5.1785,12.11495 6.1665,12.61745 C6.5795,12.82745 7.0455,12.94795 7.5405,12.94795 C8.549,12.94795 9.4405,12.45495 9.9935,11.69845 C10.5465,12.45495 11.4375,12.94795 12.4465,12.94795 C13.455,12.94795 14.3465,12.45495 14.8995,11.69845 C15.4525,12.45495 16.344,12.94795 17.3525,12.94795 C18.3615,12.94795 19.2525,12.45495 19.8055,11.69845 C20.3585,12.45495 21.25,12.94795 22.259,12.94795 C22.7535,12.94795 23.2195,12.82745 23.6325,12.61745 C24.6205,12.11495 25.299,11.09145 25.299,9.90745 L23.6325,7.25745 M23.60715,7.2169 L22.84215,5.9999 L6.95715,5.9999 L6.19165,7.2169" id="Combined-Shape"></path>
                    </g>
                </g>
            </g>
        </g>
    </g>
</svg>