<?xml version="1.0" encoding="UTF-8"?>
<svg width="20px" height="17px" viewBox="0 0 20 17" version="1.1" xmlns="http://www.w3.org/2000/svg" xmlns:xlink="http://www.w3.org/1999/xlink">
    <!-- Generator: Sketch 55 (78076) - https://sketchapp.com -->
    <title>Icons/Cart Added 2 Digit</title>
    <desc>Created with Sketch.</desc>
    <g id="Symbols" stroke="none" stroke-width="1" fill="none" fill-rule="evenodd" stroke-linecap="round" stroke-linejoin="round">
        <g id="Global/Header-Nav/Mobile" transform="translate(-323.000000, -59.000000)" stroke="#FFFFFF" stroke-width="2">
            <g id="Group-2" transform="translate(256.000000, 50.000000)">
                <g id="Icons/Cart" transform="translate(68.000000, 6.000000)">
                    <path d="M0.733186667,4.03340667 L3.78715333,4.03340667 L6.26838667,15.7823324 L16.41442,15.7823324 M15.8420533,17.2011767 C15.8420533,17.9825433 15.2084533,18.6161433 14.4274533,18.6161433 C13.64572,18.6161433 13.01212,17.9825433 13.01212,17.2011767 C13.01212,16.41981 13.64572,15.78621 14.4274533,15.78621 C15.2084533,15.78621 15.8420533,16.41981 15.8420533,17.2011767 Z M9.89087,17.2011767 C9.89087,17.9825433 9.25727,18.6161433 8.47627,18.6161433 C7.69490333,18.6161433 7.06093667,17.9825433 7.06093667,17.2011767 C7.06093667,16.41981 7.69490333,15.78621 8.47627,15.78621 C9.25727,15.78621 9.89087,16.41981 9.89087,17.2011767 Z M4.26411333,5.56024333 L17.79228,5.56024333 L16.85288,12.74911 L5.94308,12.74911" id="Combined-Shape"></path>
                </g>
            </g>
        </g>
    </g>
</svg>